<svg xmlns="http://www.w3.org/2000/svg" version="1.1" xmlns:xlink="http://www.w3.org/1999/xlink" xmlns:svgjs="http://svgjs.dev/svgjs" width="2000" height="1500" viewBox="0 0 2000 1500"><rect width="2000" height="1500" fill="#f8f8f8"></rect><g transform="matrix(0.75,0,0,0.75,249.09154779283585,526.8016238609425)"><svg viewBox="0 0 396 118" data-background-color="#f8f8f8" preserveAspectRatio="xMidYMid meet" height="595" width="2000" xmlns="http://www.w3.org/2000/svg" xmlns:xlink="http://www.w3.org/1999/xlink"><g id="tight-bounds" transform="matrix(1,0,0,1,0.24008861730862918,0.019402542092507247)"><svg viewBox="0 0 395.52 117.96086834136415" height="117.96086834136415" width="395.52"><g><svg viewBox="0 0 395.52 117.96086834136415" height="117.96086834136415" width="395.52"><g><svg viewBox="0 0 395.52 117.96086834136415" height="117.96086834136415" width="395.52"><g id="textblocktransform"><svg viewBox="0 0 395.52 117.96086834136415" height="117.96086834136415" width="395.52" id="textblock"><g><svg viewBox="0 0 395.52 117.96086834136415" height="117.96086834136415" width="395.52"><path d="M394.594 25.3C392.735 13.056 387.435 9.652 387.435 9.652 371.165-2.959 350.86-0.241 332.619 1.571 300.414 1.644 268.339 4.338 236.208 5.783 168.767 6.003 100.749 2.379 33.643 11.317 27.339 14.06-6.54 11.856 1.121 26.868 3.129 33.112 10.456 40.042 10.232 45.773 11.236 46.777 12.631 44.475 13.226 45.92 15.309 49.813 18.711 47.977 21.501 50.279 17.614 56.425 20.403 61.543 23.062 66.906 18.377 68.302 12.371 67.641 9.675 72.269 9.396 75.624 7.89 74.988 6.235 74.841 5.026 74.743 2.59 75.11 2.999 76.163 4.394 79.763-1.594 81.845 2.162 85.371-0.422 89.191 3.948 92.497 3.353 96.636 3.278 97.468 3.687 98.178 4.338 98.374 7.22 99.427 3.018 101.484 3.464 103.713 33.029 118.945 65.104 108.415 95.394 115.418 103.259 110.521 97.346 117.157 100.489 116.129 102.943 114.929 104.728 119.9 107.499 117.084 107.927 116.275 107.276 114.365 108.8 114.733 109.6 114.929 110.307 114.88 110.418 113.753 110.586 112.063 109.117 113.116 108.726 112.235 112.947 107.778 111.906 118.381 115.866 117.941 115.68 116.643 114.528 114.782 116.889 115.027 119.232 113.165 119.306 111.623 121.389 115.81 121.463 116.716 121.835 117.353 122.43 117.794 128.938 113.239 135.409 119.41 142.233 117.353 146.417 115.1 150.433 118.577 154.672 117.72 156.16 117.035 157.666 115.81 159.098 117.867 176.632 118.308 195.319 116.471 211.943 117.941 256.364 115.198 303.836 119.067 350.674 115.443 361.719 114.047 373.192 112.063 383.958 110.472 383.958 110.472 392.679 106.113 392.679 86.522S394.538 69.38 394.817 53.781C395.096 38.181 396.398 37.545 394.538 25.3Z" opacity="1" fill="#303242" data-fill-palette-color="tertiary"></path><g transform="matrix(1,0,0,1,55.76832,26.230666666666668)"><svg width="283.98335999999995" viewBox="3 -35.4 155.64 35.9" height="65.49953500803082" data-palette-color="#e2d7c6"><path d="M13 0L4 0 4-27.3 3-32.4 4-35.4 28.75-35.4 31.25-33.9 27.95-26.9 23.45-27.4 12.5-27.4 13-21.9 26.45-21.9 26.45-14.15 20.4-14.15 13-14.65 13-7.95 13.55-2.95 13 0ZM38.3 0.5L38.3 0.5Q36.15 0.5 34.32-0.13 32.5-0.75 31.4-2.3 30.3-3.85 30.3-6.6L30.3-6.6Q30.3-9.1 31.55-10.75 32.8-12.4 34.95-13.2 37.1-14 39.8-14L39.8-14Q42.4-14 43.7-13.43 45-12.85 45.95-12.25L45.95-12.25 46.3-12.55Q46.3-14.05 46.05-15.05 45.8-16.05 44.9-16.57 44-17.1 42.1-17.1L42.1-17.1Q40.25-17.1 38.17-16.78 36.1-16.45 34.37-15.98 32.65-15.5 31.8-15.05L31.8-15.05 31.8-22.55Q33.35-23.1 36.22-23.58 39.1-24.05 43.3-24.05L43.3-24.05Q47.8-24.05 50.42-22.93 53.05-21.8 54.2-19.68 55.35-17.55 55.35-14.6L55.35-14.6 55.35-7.95 56.35-2.9 55.35 0.05 46.8 0.05 46.8-2.4 46.3-2.65Q45.9-2.25 44.9-1.5 43.9-0.75 42.25-0.13 40.6 0.5 38.3 0.5ZM42.55-6.05L42.55-6.05Q43.9-6.05 44.87-6.3 45.85-6.55 46.3-6.75L46.3-6.75 46.3-7.7Q46.3-8.35 45.37-8.95 44.45-9.55 42.5-9.55L42.5-9.55Q39.8-9.55 39.8-7.65L39.8-7.65Q39.8-6.85 40.4-6.45 41-6.05 42.55-6.05ZM76.64 0L66.14 0 59.84-17.1 58.84-23.6 68.34-23.6 71.09-8 72.09-8 74.89-23.6 84.34-23.6 83.34-17.1 76.64 0ZM97.89 0.5L97.89 0.5Q91.79 0.5 88.44-2.4 85.09-5.3 85.09-11.8L85.09-11.8Q85.09-18.35 88.44-21.23 91.79-24.1 97.89-24.1L97.89-24.1Q104.14-24.1 107.37-21.23 110.59-18.35 110.59-11.8L110.59-11.8Q110.59-5.3 107.37-2.4 104.14 0.5 97.89 0.5ZM97.89-6L97.89-6Q99.94-6 100.74-7.53 101.54-9.05 101.54-11.8L101.54-11.8Q101.54-14.6 100.74-16.1 99.94-17.6 97.89-17.6L97.89-17.6Q95.79-17.6 94.97-16.1 94.14-14.6 94.14-11.8L94.14-11.8Q94.14-9.05 94.97-7.53 95.79-6 97.89-6ZM123.79 0L114.89 0 114.89-15.65 113.84-20.65 114.89-23.65 121.69-23.65 122.69-22.5Q122.69-22.5 123.39-22.93 124.09-23.35 125.37-23.75 126.64-24.15 128.34-24.15L128.34-24.15Q129.34-24.15 130.34-24 131.34-23.85 131.89-23.6L131.89-23.6 135.14-20.85 131.89-14.45 125.29-17.2 123.79-16.7 123.79 0ZM147.89 0.5L147.89 0.5Q144.24 0.5 141.44-0.25 138.64-1 137.09-1.8L137.09-1.8 137.09-8.75Q139.14-7.85 141.31-7.35 143.49-6.85 145.24-6.68 146.99-6.5 147.74-6.5L147.74-6.5Q148.59-6.5 148.94-6.78 149.29-7.05 149.29-7.45L149.29-7.45Q149.29-8 148.39-8.38 147.49-8.75 144.99-9.35L144.99-9.35Q142.94-9.85 141.01-10.63 139.09-11.4 137.86-12.8 136.64-14.2 136.64-16.55L136.64-16.55Q136.64-19.45 137.99-21.1 139.34-22.75 141.84-23.43 144.34-24.1 147.69-24.1L147.69-24.1Q149.59-24.1 151.24-23.9 152.89-23.7 153.59-23.6L153.59-23.6 158.24-20.6 155.99-15.25 147.24-17.15Q145.64-17.15 145.64-16.1L145.64-16.1Q145.64-15 147.94-14.45L147.94-14.45Q149.74-14.05 151.64-13.58 153.54-13.1 155.11-12.35 156.69-11.6 157.66-10.35 158.64-9.1 158.64-7.05L158.64-7.05Q158.64-3.25 155.91-1.38 153.19 0.5 147.89 0.5Z" opacity="1" transform="matrix(1,0,0,1,0,0)" fill="#e2d7c6" class="wordmark-text-0" data-fill-palette-color="quaternary" id="text-0"></path></svg></g></svg></g></svg></g></svg></g><g></g></svg></g><defs></defs></svg><rect width="395.52" height="117.96086834136415" fill="none" stroke="none" visibility="hidden"></rect></g></svg></g></svg>